<mxfile host="app.diagrams.net" modified="2023-04-21T02:42:34.413Z" agent="Mozilla/5.0 (Macintosh; Intel Mac OS X 10_15_7) AppleWebKit/537.36 (KHTML, like Gecko) Chrome/112.0.0.0 Safari/537.36" etag="SoiavkOHJ1pGFQag8wGA" version="21.1.1" type="device">
  <diagram name="Page-1" id="s52tUEawHeTgn5yfTffr">
    <mxGraphModel dx="2852" dy="2592" grid="1" gridSize="10" guides="1" tooltips="1" connect="1" arrows="1" fold="1" page="1" pageScale="1" pageWidth="850" pageHeight="1100" math="0" shadow="0">
      <root>
        <mxCell id="0" />
        <mxCell id="1" parent="0" />
        <mxCell id="p8Kz7wN3YYmABBfeMpYa-1" value="" style="rounded=1;arcSize=10;dashed=0;fillColor=none;gradientColor=none;strokeWidth=2;" vertex="1" parent="1">
          <mxGeometry x="50" y="-10" width="1090" height="870" as="geometry" />
        </mxCell>
        <mxCell id="p8Kz7wN3YYmABBfeMpYa-2" value="" style="dashed=0;html=1;shape=mxgraph.aws3.cloud;fillColor=#F58536;gradientColor=none;dashed=0;" vertex="1" parent="1">
          <mxGeometry x="60" y="-10" width="52" height="40" as="geometry" />
        </mxCell>
        <mxCell id="p8Kz7wN3YYmABBfeMpYa-3" value="us-west-2b" style="points=[[0,0],[0.25,0],[0.5,0],[0.75,0],[1,0],[1,0.25],[1,0.5],[1,0.75],[1,1],[0.75,1],[0.5,1],[0.25,1],[0,1],[0,0.75],[0,0.5],[0,0.25]];outlineConnect=0;gradientColor=none;html=1;whiteSpace=wrap;fontSize=12;fontStyle=0;container=1;pointerEvents=0;collapsible=0;recursiveResize=0;shape=mxgraph.aws4.group;grIcon=mxgraph.aws4.group_region;strokeColor=#147EBA;fillColor=none;verticalAlign=top;align=left;spacingLeft=30;fontColor=#147EBA;dashed=1;" vertex="1" parent="1">
          <mxGeometry x="610" y="170" width="310" height="530" as="geometry" />
        </mxCell>
        <mxCell id="p8Kz7wN3YYmABBfeMpYa-4" value="jjtech-private-subnet&lt;br&gt;10.0.0.2.0/24&lt;br&gt;" style="points=[[0,0],[0.25,0],[0.5,0],[0.75,0],[1,0],[1,0.25],[1,0.5],[1,0.75],[1,1],[0.75,1],[0.5,1],[0.25,1],[0,1],[0,0.75],[0,0.5],[0,0.25]];outlineConnect=0;gradientColor=none;html=1;whiteSpace=wrap;fontSize=12;fontStyle=0;container=1;pointerEvents=0;collapsible=0;recursiveResize=0;shape=mxgraph.aws4.group;grIcon=mxgraph.aws4.group_security_group;grStroke=0;strokeColor=#147EBA;fillColor=#E6F2F8;verticalAlign=top;align=left;spacingLeft=30;fontColor=#147EBA;dashed=0;" vertex="1" parent="p8Kz7wN3YYmABBfeMpYa-3">
          <mxGeometry x="20" y="40" width="270" height="420" as="geometry" />
        </mxCell>
        <mxCell id="p8Kz7wN3YYmABBfeMpYa-5" value="db_server" style="sketch=0;outlineConnect=0;fontColor=#232F3E;gradientColor=none;strokeColor=#ffffff;fillColor=#232F3E;dashed=0;verticalLabelPosition=middle;verticalAlign=bottom;align=center;html=1;whiteSpace=wrap;fontSize=10;fontStyle=1;spacing=3;shape=mxgraph.aws4.productIcon;prIcon=mxgraph.aws4.ec2;" vertex="1" parent="p8Kz7wN3YYmABBfeMpYa-4">
          <mxGeometry x="95" y="60" width="80" height="100" as="geometry" />
        </mxCell>
        <mxCell id="p8Kz7wN3YYmABBfeMpYa-6" value="db2_server" style="sketch=0;outlineConnect=0;fontColor=#232F3E;gradientColor=none;strokeColor=#ffffff;fillColor=#232F3E;dashed=0;verticalLabelPosition=middle;verticalAlign=bottom;align=center;html=1;whiteSpace=wrap;fontSize=10;fontStyle=1;spacing=3;shape=mxgraph.aws4.productIcon;prIcon=mxgraph.aws4.ec2;" vertex="1" parent="p8Kz7wN3YYmABBfeMpYa-4">
          <mxGeometry x="135" y="230" width="80" height="100" as="geometry" />
        </mxCell>
        <mxCell id="p8Kz7wN3YYmABBfeMpYa-7" value="Security group" style="fillColor=none;strokeColor=#DD3522;verticalAlign=top;fontStyle=0;fontColor=#DD3522;whiteSpace=wrap;html=1;" vertex="1" parent="p8Kz7wN3YYmABBfeMpYa-4">
          <mxGeometry x="60" y="40" width="155" height="130" as="geometry" />
        </mxCell>
        <mxCell id="p8Kz7wN3YYmABBfeMpYa-8" value="Bastion_SG&lt;br&gt;&lt;br&gt;only accepting&amp;nbsp;&lt;br&gt;SSH connection from&lt;br&gt;the bastion server" style="fillColor=none;strokeColor=#DD3522;verticalAlign=top;fontStyle=0;fontColor=#DD3522;whiteSpace=wrap;html=1;" vertex="1" parent="p8Kz7wN3YYmABBfeMpYa-4">
          <mxGeometry x="10" y="235" width="102.5" height="95" as="geometry" />
        </mxCell>
        <mxCell id="p8Kz7wN3YYmABBfeMpYa-13" value="" style="endArrow=classic;startArrow=classic;html=1;fontFamily=Helvetica;fontSize=11;fontColor=default;align=center;strokeColor=default;" edge="1" parent="p8Kz7wN3YYmABBfeMpYa-4" source="p8Kz7wN3YYmABBfeMpYa-6" target="p8Kz7wN3YYmABBfeMpYa-8">
          <mxGeometry width="50" height="50" relative="1" as="geometry">
            <mxPoint x="-100" y="170" as="sourcePoint" />
            <mxPoint x="-50" y="120" as="targetPoint" />
          </mxGeometry>
        </mxCell>
        <mxCell id="p8Kz7wN3YYmABBfeMpYa-14" value="us-west-2a" style="sketch=0;outlineConnect=0;gradientColor=none;html=1;whiteSpace=wrap;fontSize=12;fontStyle=0;shape=mxgraph.aws4.group;grIcon=mxgraph.aws4.group_region;strokeColor=#879196;fillColor=none;verticalAlign=top;align=left;spacingLeft=30;fontColor=#879196;dashed=1;" vertex="1" parent="1">
          <mxGeometry x="160" y="170" width="300" height="530" as="geometry" />
        </mxCell>
        <mxCell id="p8Kz7wN3YYmABBfeMpYa-15" value="jjtech-public-subnet&lt;br&gt;10.0.1.0/24" style="points=[[0,0],[0.25,0],[0.5,0],[0.75,0],[1,0],[1,0.25],[1,0.5],[1,0.75],[1,1],[0.75,1],[0.5,1],[0.25,1],[0,1],[0,0.75],[0,0.5],[0,0.25]];outlineConnect=0;gradientColor=none;html=1;whiteSpace=wrap;fontSize=12;fontStyle=0;container=1;pointerEvents=0;collapsible=0;recursiveResize=0;shape=mxgraph.aws4.group;grIcon=mxgraph.aws4.group_security_group;grStroke=0;strokeColor=#248814;fillColor=#E9F3E6;verticalAlign=top;align=left;spacingLeft=30;fontColor=#248814;dashed=0;" vertex="1" parent="1">
          <mxGeometry x="180" y="200" width="265" height="420" as="geometry" />
        </mxCell>
        <mxCell id="p8Kz7wN3YYmABBfeMpYa-16" value="web_server" style="sketch=0;outlineConnect=0;fontColor=#232F3E;gradientColor=none;strokeColor=#ffffff;fillColor=#232F3E;dashed=0;verticalLabelPosition=middle;verticalAlign=bottom;align=center;html=1;whiteSpace=wrap;fontSize=10;fontStyle=1;spacing=3;shape=mxgraph.aws4.productIcon;prIcon=mxgraph.aws4.ec2;" vertex="1" parent="p8Kz7wN3YYmABBfeMpYa-15">
          <mxGeometry x="70" y="230" width="80" height="100" as="geometry" />
        </mxCell>
        <mxCell id="p8Kz7wN3YYmABBfeMpYa-17" value="Security group" style="fillColor=none;strokeColor=#DD3522;verticalAlign=top;fontStyle=0;fontColor=#DD3522;whiteSpace=wrap;html=1;" vertex="1" parent="p8Kz7wN3YYmABBfeMpYa-15">
          <mxGeometry x="37.5" y="210" width="155" height="130" as="geometry" />
        </mxCell>
        <mxCell id="p8Kz7wN3YYmABBfeMpYa-18" value="Secondary-RT" style="sketch=0;outlineConnect=0;fontColor=#232F3E;gradientColor=none;strokeColor=#232F3E;fillColor=#ffffff;dashed=0;verticalLabelPosition=bottom;verticalAlign=top;align=center;html=1;fontSize=12;fontStyle=0;aspect=fixed;shape=mxgraph.aws4.resourceIcon;resIcon=mxgraph.aws4.route_table;" vertex="1" parent="p8Kz7wN3YYmABBfeMpYa-15">
          <mxGeometry x="217.5" width="32.5" height="32.5" as="geometry" />
        </mxCell>
        <mxCell id="p8Kz7wN3YYmABBfeMpYa-19" value="bastion_server" style="sketch=0;outlineConnect=0;fontColor=#232F3E;gradientColor=none;strokeColor=#ffffff;fillColor=#232F3E;dashed=0;verticalLabelPosition=middle;verticalAlign=bottom;align=center;html=1;whiteSpace=wrap;fontSize=10;fontStyle=1;spacing=3;shape=mxgraph.aws4.productIcon;prIcon=mxgraph.aws4.ec2;" vertex="1" parent="p8Kz7wN3YYmABBfeMpYa-15">
          <mxGeometry x="72.5" y="90" width="80" height="100" as="geometry" />
        </mxCell>
        <mxCell id="p8Kz7wN3YYmABBfeMpYa-20" value="Security group" style="fillColor=none;strokeColor=#DD3522;verticalAlign=top;fontStyle=0;fontColor=#DD3522;whiteSpace=wrap;html=1;" vertex="1" parent="p8Kz7wN3YYmABBfeMpYa-15">
          <mxGeometry x="37.5" y="60" width="155" height="130" as="geometry" />
        </mxCell>
        <mxCell id="p8Kz7wN3YYmABBfeMpYa-9" value="NAT gateway" style="sketch=0;outlineConnect=0;fontColor=#232F3E;gradientColor=none;strokeColor=#232F3E;fillColor=#ffffff;dashed=0;verticalLabelPosition=bottom;verticalAlign=top;align=center;html=1;fontSize=12;fontStyle=0;aspect=fixed;shape=mxgraph.aws4.resourceIcon;resIcon=mxgraph.aws4.nat_gateway;" vertex="1" parent="p8Kz7wN3YYmABBfeMpYa-15">
          <mxGeometry x="177.5" y="300" width="40" height="40" as="geometry" />
        </mxCell>
        <mxCell id="p8Kz7wN3YYmABBfeMpYa-21" value="" style="sketch=0;points=[[0,0,0],[0.25,0,0],[0.5,0,0],[0.75,0,0],[1,0,0],[0,1,0],[0.25,1,0],[0.5,1,0],[0.75,1,0],[1,1,0],[0,0.25,0],[0,0.5,0],[0,0.75,0],[1,0.25,0],[1,0.5,0],[1,0.75,0]];outlineConnect=0;fontColor=#232F3E;gradientColor=#60A337;gradientDirection=north;fillColor=#277116;strokeColor=#ffffff;dashed=0;verticalLabelPosition=bottom;verticalAlign=top;align=center;html=1;fontSize=12;fontStyle=0;aspect=fixed;shape=mxgraph.aws4.resourceIcon;resIcon=mxgraph.aws4.s3;" vertex="1" parent="1">
          <mxGeometry x="1050" y="574" width="48" height="48" as="geometry" />
        </mxCell>
        <mxCell id="p8Kz7wN3YYmABBfeMpYa-22" value="" style="sketch=0;outlineConnect=0;fontColor=default;gradientColor=none;strokeColor=default;fillColor=#F58536;dashed=0;verticalLabelPosition=bottom;verticalAlign=top;align=center;html=1;fontSize=12;fontStyle=0;aspect=fixed;shape=mxgraph.aws4.resourceIcon;resIcon=mxgraph.aws4.internet_gateway;fontFamily=Helvetica;" vertex="1" parent="1">
          <mxGeometry x="490" y="40" width="60" height="60" as="geometry" />
        </mxCell>
        <mxCell id="p8Kz7wN3YYmABBfeMpYa-23" value="" style="image;aspect=fixed;perimeter=ellipsePerimeter;html=1;align=center;shadow=0;dashed=0;spacingTop=3;image=img/lib/active_directory/internet_cloud.svg;" vertex="1" parent="1">
          <mxGeometry x="470" y="-120" width="100" height="63" as="geometry" />
        </mxCell>
        <mxCell id="p8Kz7wN3YYmABBfeMpYa-24" value="" style="endArrow=classic;startArrow=classic;html=1;fontFamily=Helvetica;fontSize=11;fontColor=default;align=center;strokeColor=default;" edge="1" parent="1" source="p8Kz7wN3YYmABBfeMpYa-22" target="p8Kz7wN3YYmABBfeMpYa-23">
          <mxGeometry width="50" height="50" relative="1" as="geometry">
            <mxPoint x="540" y="300" as="sourcePoint" />
            <mxPoint x="590" y="250" as="targetPoint" />
          </mxGeometry>
        </mxCell>
        <mxCell id="p8Kz7wN3YYmABBfeMpYa-25" value="" style="outlineConnect=0;dashed=0;verticalLabelPosition=bottom;verticalAlign=top;align=center;html=1;shape=mxgraph.aws3.router;fillColor=#F58536;gradientColor=none;" vertex="1" parent="1">
          <mxGeometry x="495" y="304" width="50" height="42" as="geometry" />
        </mxCell>
        <mxCell id="p8Kz7wN3YYmABBfeMpYa-26" value="Main-RT" style="sketch=0;outlineConnect=0;fontColor=#232F3E;gradientColor=none;strokeColor=#232F3E;fillColor=#ffffff;dashed=0;verticalLabelPosition=bottom;verticalAlign=top;align=center;html=1;fontSize=12;fontStyle=0;aspect=fixed;shape=mxgraph.aws4.resourceIcon;resIcon=mxgraph.aws4.route_table;" vertex="1" parent="1">
          <mxGeometry x="870" y="210" width="30" height="30" as="geometry" />
        </mxCell>
        <mxCell id="p8Kz7wN3YYmABBfeMpYa-27" value="" style="endArrow=classic;startArrow=classic;html=1;fontFamily=Helvetica;fontSize=11;fontColor=default;align=center;strokeColor=default;" edge="1" parent="1" source="p8Kz7wN3YYmABBfeMpYa-20" target="p8Kz7wN3YYmABBfeMpYa-25">
          <mxGeometry width="50" height="50" relative="1" as="geometry">
            <mxPoint x="540" y="300" as="sourcePoint" />
            <mxPoint x="590" y="250" as="targetPoint" />
          </mxGeometry>
        </mxCell>
        <mxCell id="p8Kz7wN3YYmABBfeMpYa-28" value="" style="endArrow=classic;startArrow=classic;html=1;fontFamily=Helvetica;fontSize=11;fontColor=default;align=center;strokeColor=default;" edge="1" parent="1" source="p8Kz7wN3YYmABBfeMpYa-25" target="p8Kz7wN3YYmABBfeMpYa-22">
          <mxGeometry width="50" height="50" relative="1" as="geometry">
            <mxPoint x="540" y="300" as="sourcePoint" />
            <mxPoint x="590" y="250" as="targetPoint" />
          </mxGeometry>
        </mxCell>
        <mxCell id="p8Kz7wN3YYmABBfeMpYa-29" value="" style="endArrow=classic;startArrow=classic;html=1;fontFamily=Helvetica;fontSize=11;fontColor=default;align=center;strokeColor=default;" edge="1" parent="1" source="p8Kz7wN3YYmABBfeMpYa-17" target="p8Kz7wN3YYmABBfeMpYa-25">
          <mxGeometry width="50" height="50" relative="1" as="geometry">
            <mxPoint x="540" y="300" as="sourcePoint" />
            <mxPoint x="590" y="250" as="targetPoint" />
            <Array as="points">
              <mxPoint x="520" y="475" />
            </Array>
          </mxGeometry>
        </mxCell>
        <mxCell id="p8Kz7wN3YYmABBfeMpYa-30" value="" style="endArrow=classic;startArrow=classic;html=1;fontFamily=Helvetica;fontSize=11;fontColor=default;align=center;strokeColor=default;" edge="1" parent="1" source="p8Kz7wN3YYmABBfeMpYa-11" target="p8Kz7wN3YYmABBfeMpYa-21">
          <mxGeometry width="50" height="50" relative="1" as="geometry">
            <mxPoint x="540" y="410" as="sourcePoint" />
            <mxPoint x="590" y="360" as="targetPoint" />
          </mxGeometry>
        </mxCell>
        <mxCell id="xJoOuXMhhvD1Tg6n3Ogj-1" value="" style="endArrow=classic;startArrow=classic;html=1;fontFamily=Helvetica;fontSize=11;fontColor=default;align=center;strokeColor=default;" edge="1" parent="1" source="p8Kz7wN3YYmABBfeMpYa-9" target="p8Kz7wN3YYmABBfeMpYa-7">
          <mxGeometry width="50" height="50" relative="1" as="geometry">
            <mxPoint x="600" y="450" as="sourcePoint" />
            <mxPoint x="650" y="400" as="targetPoint" />
            <Array as="points">
              <mxPoint x="560" y="520" />
              <mxPoint x="560" y="315" />
            </Array>
          </mxGeometry>
        </mxCell>
        <mxCell id="xJoOuXMhhvD1Tg6n3Ogj-5" value="JJTechVPC&lt;br&gt;10.0.0.0/16&lt;br&gt;" style="sketch=0;outlineConnect=0;gradientColor=none;html=1;whiteSpace=wrap;fontSize=12;fontStyle=0;shape=mxgraph.aws4.group;grIcon=mxgraph.aws4.group_vpc;strokeColor=#879196;fillColor=none;verticalAlign=top;align=left;spacingLeft=30;fontColor=#879196;dashed=0;" vertex="1" parent="1">
          <mxGeometry x="112" y="70" width="859" height="710" as="geometry" />
        </mxCell>
        <mxCell id="p8Kz7wN3YYmABBfeMpYa-33" value="" style="rounded=1;arcSize=10;dashed=0;fillColor=none;gradientColor=none;strokeWidth=2;" vertex="1" parent="1">
          <mxGeometry x="50" y="-10" width="1090" height="870" as="geometry" />
        </mxCell>
        <mxCell id="p8Kz7wN3YYmABBfeMpYa-11" value="" style="sketch=0;outlineConnect=0;fontColor=#232F3E;gradientColor=none;fillColor=#B0084D;strokeColor=none;dashed=0;verticalLabelPosition=bottom;verticalAlign=top;align=center;html=1;fontSize=12;fontStyle=0;aspect=fixed;pointerEvents=1;shape=mxgraph.aws4.endpoint;" vertex="1" parent="1">
          <mxGeometry x="940" y="574" width="50" height="50" as="geometry" />
        </mxCell>
        <mxCell id="p8Kz7wN3YYmABBfeMpYa-34" value="" style="dashed=0;html=1;shape=mxgraph.aws3.cloud;fillColor=#F58536;gradientColor=none;dashed=0;" vertex="1" parent="1">
          <mxGeometry x="60" y="-10" width="52" height="40" as="geometry" />
        </mxCell>
        <mxCell id="p8Kz7wN3YYmABBfeMpYa-12" value="" style="endArrow=classic;startArrow=classic;html=1;fontFamily=Helvetica;fontSize=11;fontColor=default;align=center;strokeColor=default;" edge="1" parent="1" source="p8Kz7wN3YYmABBfeMpYa-6" target="p8Kz7wN3YYmABBfeMpYa-11">
          <mxGeometry width="50" height="50" relative="1" as="geometry">
            <mxPoint x="530" y="350" as="sourcePoint" />
            <mxPoint x="580" y="300" as="targetPoint" />
          </mxGeometry>
        </mxCell>
        <mxCell id="p8Kz7wN3YYmABBfeMpYa-35" value="us-west-2b" style="points=[[0,0],[0.25,0],[0.5,0],[0.75,0],[1,0],[1,0.25],[1,0.5],[1,0.75],[1,1],[0.75,1],[0.5,1],[0.25,1],[0,1],[0,0.75],[0,0.5],[0,0.25]];outlineConnect=0;gradientColor=none;html=1;whiteSpace=wrap;fontSize=12;fontStyle=0;container=1;pointerEvents=0;collapsible=0;recursiveResize=0;shape=mxgraph.aws4.group;grIcon=mxgraph.aws4.group_region;strokeColor=#147EBA;fillColor=none;verticalAlign=top;align=left;spacingLeft=30;fontColor=#147EBA;dashed=1;" vertex="1" parent="1">
          <mxGeometry x="610" y="170" width="310" height="530" as="geometry" />
        </mxCell>
        <mxCell id="p8Kz7wN3YYmABBfeMpYa-36" value="jjtech-private-subnet&lt;br&gt;10.0.0.2.0/24&lt;br&gt;" style="points=[[0,0],[0.25,0],[0.5,0],[0.75,0],[1,0],[1,0.25],[1,0.5],[1,0.75],[1,1],[0.75,1],[0.5,1],[0.25,1],[0,1],[0,0.75],[0,0.5],[0,0.25]];outlineConnect=0;gradientColor=none;html=1;whiteSpace=wrap;fontSize=12;fontStyle=0;container=1;pointerEvents=0;collapsible=0;recursiveResize=0;shape=mxgraph.aws4.group;grIcon=mxgraph.aws4.group_security_group;grStroke=0;strokeColor=#147EBA;fillColor=#E6F2F8;verticalAlign=top;align=left;spacingLeft=30;fontColor=#147EBA;dashed=0;" vertex="1" parent="p8Kz7wN3YYmABBfeMpYa-35">
          <mxGeometry x="20" y="40" width="270" height="420" as="geometry" />
        </mxCell>
        <mxCell id="p8Kz7wN3YYmABBfeMpYa-37" value="db_server" style="sketch=0;outlineConnect=0;fontColor=#232F3E;gradientColor=none;strokeColor=#ffffff;fillColor=#232F3E;dashed=0;verticalLabelPosition=middle;verticalAlign=bottom;align=center;html=1;whiteSpace=wrap;fontSize=10;fontStyle=1;spacing=3;shape=mxgraph.aws4.productIcon;prIcon=mxgraph.aws4.ec2;" vertex="1" parent="p8Kz7wN3YYmABBfeMpYa-36">
          <mxGeometry x="95" y="60" width="80" height="100" as="geometry" />
        </mxCell>
        <mxCell id="p8Kz7wN3YYmABBfeMpYa-38" value="db2_server" style="sketch=0;outlineConnect=0;fontColor=#232F3E;gradientColor=none;strokeColor=#ffffff;fillColor=#232F3E;dashed=0;verticalLabelPosition=middle;verticalAlign=bottom;align=center;html=1;whiteSpace=wrap;fontSize=10;fontStyle=1;spacing=3;shape=mxgraph.aws4.productIcon;prIcon=mxgraph.aws4.ec2;" vertex="1" parent="p8Kz7wN3YYmABBfeMpYa-36">
          <mxGeometry x="135" y="230" width="80" height="100" as="geometry" />
        </mxCell>
        <mxCell id="p8Kz7wN3YYmABBfeMpYa-39" value="Security group" style="fillColor=none;strokeColor=#DD3522;verticalAlign=top;fontStyle=0;fontColor=#DD3522;whiteSpace=wrap;html=1;" vertex="1" parent="p8Kz7wN3YYmABBfeMpYa-36">
          <mxGeometry x="60" y="40" width="155" height="130" as="geometry" />
        </mxCell>
        <mxCell id="p8Kz7wN3YYmABBfeMpYa-40" value="Bastion_SG&lt;br&gt;&lt;br&gt;only accepting&amp;nbsp;&lt;br&gt;SSH connection from&lt;br&gt;the bastion server" style="fillColor=none;strokeColor=#DD3522;verticalAlign=top;fontStyle=0;fontColor=#DD3522;whiteSpace=wrap;html=1;" vertex="1" parent="p8Kz7wN3YYmABBfeMpYa-36">
          <mxGeometry x="10" y="235" width="102.5" height="95" as="geometry" />
        </mxCell>
        <mxCell id="p8Kz7wN3YYmABBfeMpYa-41" value="" style="endArrow=classic;startArrow=classic;html=1;fontFamily=Helvetica;fontSize=11;fontColor=default;align=center;strokeColor=default;" edge="1" parent="p8Kz7wN3YYmABBfeMpYa-36" source="p8Kz7wN3YYmABBfeMpYa-38" target="p8Kz7wN3YYmABBfeMpYa-40">
          <mxGeometry width="50" height="50" relative="1" as="geometry">
            <mxPoint x="-100" y="170" as="sourcePoint" />
            <mxPoint x="-50" y="120" as="targetPoint" />
          </mxGeometry>
        </mxCell>
        <mxCell id="p8Kz7wN3YYmABBfeMpYa-42" value="us-west-2a" style="sketch=0;outlineConnect=0;gradientColor=none;html=1;whiteSpace=wrap;fontSize=12;fontStyle=0;shape=mxgraph.aws4.group;grIcon=mxgraph.aws4.group_region;strokeColor=#879196;fillColor=none;verticalAlign=top;align=left;spacingLeft=30;fontColor=#879196;dashed=1;" vertex="1" parent="1">
          <mxGeometry x="160" y="170" width="300" height="530" as="geometry" />
        </mxCell>
        <mxCell id="p8Kz7wN3YYmABBfeMpYa-43" value="jjtech-public-subnet&lt;br&gt;10.0.1.0/24" style="points=[[0,0],[0.25,0],[0.5,0],[0.75,0],[1,0],[1,0.25],[1,0.5],[1,0.75],[1,1],[0.75,1],[0.5,1],[0.25,1],[0,1],[0,0.75],[0,0.5],[0,0.25]];outlineConnect=0;gradientColor=none;html=1;whiteSpace=wrap;fontSize=12;fontStyle=0;container=1;pointerEvents=0;collapsible=0;recursiveResize=0;shape=mxgraph.aws4.group;grIcon=mxgraph.aws4.group_security_group;grStroke=0;strokeColor=#248814;fillColor=#E9F3E6;verticalAlign=top;align=left;spacingLeft=30;fontColor=#248814;dashed=0;" vertex="1" parent="1">
          <mxGeometry x="180" y="200" width="265" height="420" as="geometry" />
        </mxCell>
        <mxCell id="p8Kz7wN3YYmABBfeMpYa-44" value="web_server" style="sketch=0;outlineConnect=0;fontColor=#232F3E;gradientColor=none;strokeColor=#ffffff;fillColor=#232F3E;dashed=0;verticalLabelPosition=middle;verticalAlign=bottom;align=center;html=1;whiteSpace=wrap;fontSize=10;fontStyle=1;spacing=3;shape=mxgraph.aws4.productIcon;prIcon=mxgraph.aws4.ec2;" vertex="1" parent="p8Kz7wN3YYmABBfeMpYa-43">
          <mxGeometry x="70" y="230" width="80" height="100" as="geometry" />
        </mxCell>
        <mxCell id="p8Kz7wN3YYmABBfeMpYa-45" value="Security group" style="fillColor=none;strokeColor=#DD3522;verticalAlign=top;fontStyle=0;fontColor=#DD3522;whiteSpace=wrap;html=1;" vertex="1" parent="p8Kz7wN3YYmABBfeMpYa-43">
          <mxGeometry x="37.5" y="210" width="155" height="130" as="geometry" />
        </mxCell>
        <mxCell id="p8Kz7wN3YYmABBfeMpYa-46" value="Secondary-RT" style="sketch=0;outlineConnect=0;fontColor=#232F3E;gradientColor=none;strokeColor=#232F3E;fillColor=#ffffff;dashed=0;verticalLabelPosition=bottom;verticalAlign=top;align=center;html=1;fontSize=12;fontStyle=0;aspect=fixed;shape=mxgraph.aws4.resourceIcon;resIcon=mxgraph.aws4.route_table;" vertex="1" parent="p8Kz7wN3YYmABBfeMpYa-43">
          <mxGeometry x="217.5" width="32.5" height="32.5" as="geometry" />
        </mxCell>
        <mxCell id="p8Kz7wN3YYmABBfeMpYa-47" value="bastion_server" style="sketch=0;outlineConnect=0;fontColor=#232F3E;gradientColor=none;strokeColor=#ffffff;fillColor=#232F3E;dashed=0;verticalLabelPosition=middle;verticalAlign=bottom;align=center;html=1;whiteSpace=wrap;fontSize=10;fontStyle=1;spacing=3;shape=mxgraph.aws4.productIcon;prIcon=mxgraph.aws4.ec2;" vertex="1" parent="p8Kz7wN3YYmABBfeMpYa-43">
          <mxGeometry x="72.5" y="90" width="80" height="100" as="geometry" />
        </mxCell>
        <mxCell id="p8Kz7wN3YYmABBfeMpYa-48" value="Security group" style="fillColor=none;strokeColor=#DD3522;verticalAlign=top;fontStyle=0;fontColor=#DD3522;whiteSpace=wrap;html=1;" vertex="1" parent="p8Kz7wN3YYmABBfeMpYa-43">
          <mxGeometry x="37.5" y="60" width="155" height="130" as="geometry" />
        </mxCell>
        <mxCell id="p8Kz7wN3YYmABBfeMpYa-49" value="NAT gateway" style="sketch=0;outlineConnect=0;fontColor=#232F3E;gradientColor=none;strokeColor=#232F3E;fillColor=#ffffff;dashed=0;verticalLabelPosition=bottom;verticalAlign=top;align=center;html=1;fontSize=12;fontStyle=0;aspect=fixed;shape=mxgraph.aws4.resourceIcon;resIcon=mxgraph.aws4.nat_gateway;" vertex="1" parent="p8Kz7wN3YYmABBfeMpYa-43">
          <mxGeometry x="177.5" y="300" width="40" height="40" as="geometry" />
        </mxCell>
        <mxCell id="p8Kz7wN3YYmABBfeMpYa-50" value="" style="sketch=0;points=[[0,0,0],[0.25,0,0],[0.5,0,0],[0.75,0,0],[1,0,0],[0,1,0],[0.25,1,0],[0.5,1,0],[0.75,1,0],[1,1,0],[0,0.25,0],[0,0.5,0],[0,0.75,0],[1,0.25,0],[1,0.5,0],[1,0.75,0]];outlineConnect=0;fontColor=#232F3E;gradientColor=#60A337;gradientDirection=north;fillColor=#277116;strokeColor=#ffffff;dashed=0;verticalLabelPosition=bottom;verticalAlign=top;align=center;html=1;fontSize=12;fontStyle=0;aspect=fixed;shape=mxgraph.aws4.resourceIcon;resIcon=mxgraph.aws4.s3;" vertex="1" parent="1">
          <mxGeometry x="1050" y="574" width="48" height="48" as="geometry" />
        </mxCell>
        <mxCell id="p8Kz7wN3YYmABBfeMpYa-51" value="" style="sketch=0;outlineConnect=0;fontColor=default;gradientColor=none;strokeColor=default;fillColor=#F58536;dashed=0;verticalLabelPosition=bottom;verticalAlign=top;align=center;html=1;fontSize=12;fontStyle=0;aspect=fixed;shape=mxgraph.aws4.resourceIcon;resIcon=mxgraph.aws4.internet_gateway;fontFamily=Helvetica;" vertex="1" parent="1">
          <mxGeometry x="490" y="40" width="60" height="60" as="geometry" />
        </mxCell>
        <mxCell id="p8Kz7wN3YYmABBfeMpYa-52" value="" style="image;aspect=fixed;perimeter=ellipsePerimeter;html=1;align=center;shadow=0;dashed=0;spacingTop=3;image=img/lib/active_directory/internet_cloud.svg;" vertex="1" parent="1">
          <mxGeometry x="470" y="-120" width="100" height="63" as="geometry" />
        </mxCell>
        <mxCell id="p8Kz7wN3YYmABBfeMpYa-53" value="" style="endArrow=classic;startArrow=classic;html=1;fontFamily=Helvetica;fontSize=11;fontColor=default;align=center;strokeColor=default;" edge="1" parent="1" source="p8Kz7wN3YYmABBfeMpYa-51" target="p8Kz7wN3YYmABBfeMpYa-52">
          <mxGeometry width="50" height="50" relative="1" as="geometry">
            <mxPoint x="540" y="300" as="sourcePoint" />
            <mxPoint x="590" y="250" as="targetPoint" />
          </mxGeometry>
        </mxCell>
        <mxCell id="p8Kz7wN3YYmABBfeMpYa-54" value="" style="outlineConnect=0;dashed=0;verticalLabelPosition=bottom;verticalAlign=top;align=center;html=1;shape=mxgraph.aws3.router;fillColor=#F58536;gradientColor=none;" vertex="1" parent="1">
          <mxGeometry x="495" y="304" width="50" height="42" as="geometry" />
        </mxCell>
        <mxCell id="p8Kz7wN3YYmABBfeMpYa-55" value="Main-RT" style="sketch=0;outlineConnect=0;fontColor=#232F3E;gradientColor=none;strokeColor=#232F3E;fillColor=#ffffff;dashed=0;verticalLabelPosition=bottom;verticalAlign=top;align=center;html=1;fontSize=12;fontStyle=0;aspect=fixed;shape=mxgraph.aws4.resourceIcon;resIcon=mxgraph.aws4.route_table;" vertex="1" parent="1">
          <mxGeometry x="870" y="210" width="30" height="30" as="geometry" />
        </mxCell>
        <mxCell id="p8Kz7wN3YYmABBfeMpYa-56" value="" style="endArrow=classic;startArrow=classic;html=1;fontFamily=Helvetica;fontSize=11;fontColor=default;align=center;strokeColor=default;" edge="1" parent="1" source="p8Kz7wN3YYmABBfeMpYa-48" target="p8Kz7wN3YYmABBfeMpYa-54">
          <mxGeometry width="50" height="50" relative="1" as="geometry">
            <mxPoint x="540" y="300" as="sourcePoint" />
            <mxPoint x="590" y="250" as="targetPoint" />
          </mxGeometry>
        </mxCell>
        <mxCell id="p8Kz7wN3YYmABBfeMpYa-57" value="" style="endArrow=classic;startArrow=classic;html=1;fontFamily=Helvetica;fontSize=11;fontColor=default;align=center;strokeColor=default;" edge="1" parent="1" source="p8Kz7wN3YYmABBfeMpYa-54" target="p8Kz7wN3YYmABBfeMpYa-51">
          <mxGeometry width="50" height="50" relative="1" as="geometry">
            <mxPoint x="540" y="300" as="sourcePoint" />
            <mxPoint x="590" y="250" as="targetPoint" />
          </mxGeometry>
        </mxCell>
        <mxCell id="p8Kz7wN3YYmABBfeMpYa-58" value="" style="endArrow=classic;startArrow=classic;html=1;fontFamily=Helvetica;fontSize=11;fontColor=default;align=center;strokeColor=default;" edge="1" parent="1" source="p8Kz7wN3YYmABBfeMpYa-45" target="p8Kz7wN3YYmABBfeMpYa-54">
          <mxGeometry width="50" height="50" relative="1" as="geometry">
            <mxPoint x="540" y="300" as="sourcePoint" />
            <mxPoint x="590" y="250" as="targetPoint" />
            <Array as="points">
              <mxPoint x="520" y="475" />
            </Array>
          </mxGeometry>
        </mxCell>
        <mxCell id="p8Kz7wN3YYmABBfeMpYa-59" value="" style="endArrow=classic;startArrow=classic;html=1;fontFamily=Helvetica;fontSize=11;fontColor=default;align=center;strokeColor=default;" edge="1" parent="1" source="p8Kz7wN3YYmABBfeMpYa-62" target="p8Kz7wN3YYmABBfeMpYa-50">
          <mxGeometry width="50" height="50" relative="1" as="geometry">
            <mxPoint x="540" y="410" as="sourcePoint" />
            <mxPoint x="590" y="360" as="targetPoint" />
          </mxGeometry>
        </mxCell>
        <mxCell id="p8Kz7wN3YYmABBfeMpYa-60" value="" style="endArrow=classic;startArrow=classic;html=1;fontFamily=Helvetica;fontSize=11;fontColor=default;align=center;strokeColor=default;" edge="1" parent="1" source="p8Kz7wN3YYmABBfeMpYa-49" target="p8Kz7wN3YYmABBfeMpYa-39">
          <mxGeometry width="50" height="50" relative="1" as="geometry">
            <mxPoint x="600" y="450" as="sourcePoint" />
            <mxPoint x="650" y="400" as="targetPoint" />
            <Array as="points">
              <mxPoint x="560" y="520" />
              <mxPoint x="560" y="315" />
            </Array>
          </mxGeometry>
        </mxCell>
        <mxCell id="p8Kz7wN3YYmABBfeMpYa-61" value="JJTechVPC&lt;br&gt;10.0.0.0/16&lt;br&gt;" style="sketch=0;outlineConnect=0;gradientColor=none;html=1;whiteSpace=wrap;fontSize=12;fontStyle=0;shape=mxgraph.aws4.group;grIcon=mxgraph.aws4.group_vpc;strokeColor=#879196;fillColor=none;verticalAlign=top;align=left;spacingLeft=30;fontColor=#879196;dashed=0;" vertex="1" parent="1">
          <mxGeometry x="112" y="70" width="859" height="710" as="geometry" />
        </mxCell>
        <mxCell id="p8Kz7wN3YYmABBfeMpYa-62" value="" style="sketch=0;outlineConnect=0;fontColor=#232F3E;gradientColor=none;fillColor=#B0084D;strokeColor=none;dashed=0;verticalLabelPosition=bottom;verticalAlign=top;align=center;html=1;fontSize=12;fontStyle=0;aspect=fixed;pointerEvents=1;shape=mxgraph.aws4.endpoint;" vertex="1" parent="1">
          <mxGeometry x="940" y="574" width="50" height="50" as="geometry" />
        </mxCell>
        <mxCell id="p8Kz7wN3YYmABBfeMpYa-63" value="" style="endArrow=classic;startArrow=classic;html=1;fontFamily=Helvetica;fontSize=11;fontColor=default;align=center;strokeColor=default;" edge="1" parent="1" source="p8Kz7wN3YYmABBfeMpYa-38" target="p8Kz7wN3YYmABBfeMpYa-62">
          <mxGeometry width="50" height="50" relative="1" as="geometry">
            <mxPoint x="530" y="350" as="sourcePoint" />
            <mxPoint x="580" y="300" as="targetPoint" />
          </mxGeometry>
        </mxCell>
      </root>
    </mxGraphModel>
  </diagram>
</mxfile>
